<svg width="55" height="52" viewBox="0 0 55 52" fill="none" xmlns="http://www.w3.org/2000/svg">
  <path d="M0.0465313 18V0.912H2.39853L5.54253 9.96H5.59053L8.71053 0.912H11.0865V18H8.63853V7.608H8.59053L6.16653 14.952H4.94253L2.54253 7.608H2.49453V18H0.0465313ZM18.3265 12.024L17.1265 5.832H17.0785L15.8785 12.024H18.3265ZM12.2785 18L16.0945 0.912H18.1345L21.9505 18H19.5025L18.7825 14.328H15.4465L14.7265 18H12.2785ZM23.0119 4.944C23.0119 4.256 23.1319 3.648 23.3719 3.12C23.6119 2.592 23.9319 2.152 24.3319 1.8C24.7159 1.464 25.1479 1.208 25.6279 1.032C26.1239 0.855999 26.6199 0.767999 27.1159 0.767999C27.6119 0.767999 28.0999 0.855999 28.5799 1.032C29.0759 1.208 29.5239 1.464 29.9239 1.8C30.3079 2.152 30.6199 2.592 30.8599 3.12C31.0999 3.648 31.2199 4.256 31.2199 4.944V5.808H28.7719V4.944C28.7719 4.352 28.6039 3.92 28.2679 3.648C27.9479 3.36 27.5639 3.216 27.1159 3.216C26.6679 3.216 26.2759 3.36 25.9399 3.648C25.6199 3.92 25.4599 4.352 25.4599 4.944V13.968C25.4599 14.56 25.6199 15 25.9399 15.288C26.2759 15.56 26.6679 15.696 27.1159 15.696C27.5639 15.696 27.9479 15.56 28.2679 15.288C28.6039 15 28.7719 14.56 28.7719 13.968V10.752H26.8279V8.592H31.2199V13.968C31.2199 14.688 31.0999 15.304 30.8599 15.816C30.6199 16.328 30.3079 16.752 29.9239 17.088C29.5239 17.44 29.0759 17.704 28.5799 17.88C28.0999 18.056 27.6119 18.144 27.1159 18.144C26.6199 18.144 26.1239 18.056 25.6279 17.88C25.1479 17.704 24.7159 17.44 24.3319 17.088C23.9319 16.752 23.6119 16.328 23.3719 15.816C23.1319 15.304 23.0119 14.688 23.0119 13.968V4.944ZM33.2787 18V0.912H35.6307L39.3267 11.208H39.3747V0.912H41.8227V18H39.5187L35.7747 7.728H35.7267V18H33.2787ZM43.8947 4.944C43.8947 4.256 44.0147 3.648 44.2547 3.12C44.4947 2.592 44.8147 2.152 45.2147 1.8C45.5987 1.464 46.0307 1.208 46.5107 1.032C47.0067 0.855999 47.5027 0.767999 47.9987 0.767999C48.4947 0.767999 48.9827 0.855999 49.4627 1.032C49.9587 1.208 50.4067 1.464 50.8067 1.8C51.1907 2.152 51.5027 2.592 51.7427 3.12C51.9827 3.648 52.1027 4.256 52.1027 4.944V13.968C52.1027 14.688 51.9827 15.304 51.7427 15.816C51.5027 16.328 51.1907 16.752 50.8067 17.088C50.4067 17.44 49.9587 17.704 49.4627 17.88C48.9827 18.056 48.4947 18.144 47.9987 18.144C47.5027 18.144 47.0067 18.056 46.5107 17.88C46.0307 17.704 45.5987 17.44 45.2147 17.088C44.8147 16.752 44.4947 16.328 44.2547 15.816C44.0147 15.304 43.8947 14.688 43.8947 13.968V4.944ZM46.3427 13.968C46.3427 14.56 46.5027 15 46.8227 15.288C47.1587 15.56 47.5507 15.696 47.9987 15.696C48.4467 15.696 48.8307 15.56 49.1507 15.288C49.4867 15 49.6547 14.56 49.6547 13.968V4.944C49.6547 4.352 49.4867 3.92 49.1507 3.648C48.8307 3.36 48.4467 3.216 47.9987 3.216C47.5507 3.216 47.1587 3.36 46.8227 3.648C46.5027 3.92 46.3427 4.352 46.3427 4.944V13.968ZM0.0433438 52V22.096H6.30134C7.67334 22.096 8.83534 22.306 9.78734 22.726C10.7673 23.146 11.5653 23.706 12.1813 24.406C12.7973 25.106 13.2313 25.918 13.4833 26.842C13.7633 27.738 13.9033 28.676 13.9033 29.656V30.748C13.9033 31.56 13.8333 32.246 13.6933 32.806C13.5813 33.366 13.3993 33.856 13.1473 34.276C12.6713 35.06 11.9433 35.732 10.9633 36.292C11.9713 36.768 12.7133 37.468 13.1893 38.392C13.6653 39.316 13.9033 40.576 13.9033 42.172V43.852C13.9033 46.484 13.2593 48.5 11.9713 49.9C10.7113 51.3 8.68134 52 5.88134 52H0.0433438ZM4.32734 38.14V47.716H6.17534C7.04334 47.716 7.71534 47.59 8.19134 47.338C8.69534 47.086 9.07334 46.736 9.32534 46.288C9.57734 45.84 9.73134 45.308 9.78734 44.692C9.84334 44.076 9.87134 43.404 9.87134 42.676C9.87134 41.92 9.82934 41.262 9.74534 40.702C9.66134 40.142 9.49334 39.666 9.24134 39.274C8.96134 38.882 8.58334 38.602 8.10734 38.434C7.63134 38.238 7.00134 38.14 6.21734 38.14H4.32734ZM4.32734 26.128V34.36H6.25934C7.68734 34.36 8.63934 34.01 9.11534 33.31C9.61934 32.582 9.87134 31.532 9.87134 30.16C9.87134 28.816 9.59134 27.808 9.03134 27.136C8.49934 26.464 7.51934 26.128 6.09134 26.128H4.32734ZM18.0522 52V22.096H22.3362V52H18.0522ZM26.4984 52V22.096H39.2664V26.128H30.7824V34.906H38.1744V38.938H30.7824V47.716H39.2664V52H26.4984ZM44.8573 52V26.128H39.9013V22.096H54.0973V26.128H49.1413V52H44.8573Z" fill="#000000" />
</svg>
