<svg width="84" height="16" viewBox="0 0 84 16" fill="none" xmlns="http://www.w3.org/2000/svg">
  <path d="M9.02637 12.1523L0.571289 8.62793V6.84375L9.02637 3.31055V5.63086L3.80566 7.73145L9.02637 9.82324V12.1523ZM24.9346 0.770508V15H21.7002V5.39355L20.4082 15H18.1143L16.752 5.61328V15H13.5176V0.770508H18.3076C18.4482 1.62598 18.5977 2.63379 18.7559 3.79395L19.2656 7.41504L20.1094 0.770508H24.9346ZM32.8096 0.770508L34.9277 15H31.1396L30.9551 12.4424H29.6279L29.4082 15H25.5762L27.457 0.770508H32.8096ZM30.8496 9.91992C30.6621 8.30859 30.4746 6.31934 30.2871 3.95215C29.9121 6.6709 29.6777 8.66016 29.584 9.91992H30.8496ZM44.0508 6.00879H40.3506V4.7168C40.3506 3.90234 40.3154 3.39258 40.2451 3.1875C40.1748 2.98242 40.0078 2.87988 39.7441 2.87988C39.5156 2.87988 39.3604 2.96777 39.2783 3.14355C39.1963 3.31934 39.1553 3.77051 39.1553 4.49707V11.3262C39.1553 11.9648 39.1963 12.3867 39.2783 12.5918C39.3604 12.791 39.5244 12.8906 39.7705 12.8906C40.04 12.8906 40.2217 12.7764 40.3154 12.5479C40.415 12.3193 40.4648 11.874 40.4648 11.2119V9.52441H39.7178V7.3623H44.0508V15H41.7217L41.3789 13.9805C41.127 14.4199 40.8076 14.751 40.4209 14.9736C40.04 15.1904 39.5889 15.2988 39.0674 15.2988C38.4463 15.2988 37.8633 15.1494 37.3184 14.8506C36.7793 14.5459 36.3691 14.1709 36.0879 13.7256C35.8066 13.2803 35.6309 12.8145 35.5605 12.3281C35.4902 11.8359 35.4551 11.1006 35.4551 10.1221V5.89453C35.4551 4.53516 35.5283 3.54785 35.6748 2.93262C35.8213 2.31738 36.2402 1.75488 36.9316 1.24512C37.6289 0.729492 38.5283 0.47168 39.6299 0.47168C40.7139 0.47168 41.6133 0.694336 42.3281 1.13965C43.043 1.58496 43.5088 2.11523 43.7256 2.73047C43.9424 3.33984 44.0508 4.22754 44.0508 5.39355V6.00879ZM53.7539 0.770508V15H50.5107L48.5859 8.53125V15H45.4922V0.770508H48.5859L50.6602 7.17773V0.770508H53.7539ZM63.7031 9.10254C63.7031 10.5322 63.668 11.5459 63.5977 12.1436C63.5332 12.7354 63.3223 13.2773 62.9648 13.7695C62.6133 14.2617 62.1357 14.6396 61.5322 14.9033C60.9287 15.167 60.2256 15.2988 59.4229 15.2988C58.6611 15.2988 57.9756 15.1758 57.3662 14.9297C56.7627 14.6777 56.2764 14.3027 55.9072 13.8047C55.5381 13.3066 55.3184 12.7646 55.248 12.1787C55.1777 11.5928 55.1426 10.5674 55.1426 9.10254V6.66797C55.1426 5.23828 55.1748 4.22754 55.2393 3.63574C55.3096 3.03809 55.5205 2.49316 55.8721 2.00098C56.2295 1.50879 56.71 1.13086 57.3135 0.867188C57.917 0.603516 58.6201 0.47168 59.4229 0.47168C60.1846 0.47168 60.8672 0.597656 61.4707 0.849609C62.0801 1.0957 62.5693 1.46777 62.9385 1.96582C63.3076 2.46387 63.5273 3.00586 63.5977 3.5918C63.668 4.17773 63.7031 5.20312 63.7031 6.66797V9.10254ZM60.0029 4.42676C60.0029 3.76465 59.9648 3.34277 59.8887 3.16113C59.8184 2.97363 59.6689 2.87988 59.4404 2.87988C59.2471 2.87988 59.0977 2.95605 58.9922 3.1084C58.8926 3.25488 58.8428 3.69434 58.8428 4.42676V11.0713C58.8428 11.8975 58.875 12.4072 58.9395 12.6006C59.0098 12.7939 59.168 12.8906 59.4141 12.8906C59.666 12.8906 59.8271 12.7793 59.8975 12.5566C59.9678 12.334 60.0029 11.8037 60.0029 10.9658V4.42676ZM74.5488 0.498047L70.3301 15.2725H67.6406L71.8857 0.498047H74.5488ZM75.2256 3.31055L83.6807 6.82617V8.61914L75.2256 12.1523V9.83203L80.4463 7.73145L75.2256 5.63965V3.31055Z" fill="#ffffff" />
</svg>
